<svg xmlns="http://www.w3.org/2000/svg" xmlns:xlink="http://www.w3.org/1999/xlink" width="159" zoomAndPan="magnify" viewBox="0 0 119.25 30.000001" height="40" preserveAspectRatio="xMidYMid meet" version="1.0"><defs><clipPath id="ce03ad3d32"><path d="M 1.558594 0 L 116.964844 0 L 116.964844 29.03125 L 1.558594 29.03125 Z M 1.558594 0 " clip-rule="nonzero"/></clipPath><clipPath id="5c2dc94088"><path d="M 8 0 L 116.964844 0 L 116.964844 29.03125 L 8 29.03125 Z M 8 0 " clip-rule="nonzero"/></clipPath></defs><g clip-path="url(#ce03ad3d32)"><path fill="#ffffff" d="M 1.558594 0 L 116.964844 0 L 116.964844 29.03125 L 1.558594 29.03125 Z M 1.558594 0 " fill-opacity="1" fill-rule="nonzero"/><path fill="#ffffff" d="M 1.558594 0 L 116.964844 0 L 116.964844 29.03125 L 1.558594 29.03125 Z M 1.558594 0 " fill-opacity="1" fill-rule="nonzero"/></g><g clip-path="url(#5c2dc94088)"><path stroke-linecap="butt" transform="matrix(0.725806, 0, 0, 0.725806, -59.624086, -6.011151)" fill="none" stroke-linejoin="miter" d="M 121.33468 10.4671 C 121.512284 10.111892 121.835201 9.93967 122.292666 9.93967 L 130.548569 9.93967 C 130.80152 9.93967 130.99527 10.009635 131.129819 10.154948 C 131.280513 10.294878 131.350478 10.483246 131.350478 10.725434 L 131.350478 46.213976 C 131.350478 46.450781 131.280513 46.644531 131.129819 46.795226 C 130.99527 46.929774 130.80152 46.99974 130.548569 46.99974 L 122.185027 46.99974 C 121.937457 46.99974 121.743707 46.929774 121.603777 46.795226 C 121.469228 46.644531 121.399263 46.450781 121.399263 46.213976 L 121.399263 25.875607 C 121.399263 25.730295 121.350826 25.638802 121.253951 25.60651 C 121.167839 25.568837 121.092492 25.628038 121.022527 25.773351 L 117.637284 31.381337 C 117.422006 31.736545 117.104471 31.914149 116.679298 31.914149 L 115.296138 31.914149 C 114.876346 31.914149 114.558812 31.736545 114.354298 31.381337 L 110.963673 25.708767 C 110.888325 25.568837 110.807596 25.520399 110.721485 25.552691 C 110.635374 25.590364 110.592318 25.676476 110.592318 25.82717 L 110.592318 46.213976 C 110.592318 46.450781 110.516971 46.644531 110.371659 46.795226 C 110.231728 46.929774 110.037978 46.99974 109.790409 46.99974 L 101.426867 46.99974 C 101.18468 46.99974 100.99093 46.929774 100.845617 46.795226 C 100.705686 46.644531 100.635721 46.450781 100.635721 46.213976 L 100.635721 10.725434 C 100.635721 10.483246 100.705686 10.294878 100.845617 10.154948 C 100.99093 10.009635 101.18468 9.93967 101.426867 9.93967 L 109.688152 9.93967 C 110.107943 9.93967 110.425478 10.111892 110.640756 10.4671 L 115.82895 19.255816 C 115.904298 19.363455 115.985027 19.411892 116.071138 19.411892 C 116.157249 19.411892 116.21645 19.363455 116.254124 19.255816 Z M 155.43468 46.99974 C 154.934159 46.99974 154.63277 46.773698 154.530513 46.316233 L 153.637111 42.231337 C 153.556381 42.059115 153.448742 41.973003 153.314194 41.973003 L 145.375826 41.973003 C 145.230513 41.973003 145.122874 42.059115 145.052909 42.231337 L 144.19718 46.316233 C 144.094923 46.773698 143.798916 46.99974 143.309159 46.99974 L 134.622701 46.99974 C 134.337458 46.99974 134.132944 46.924392 134.014541 46.768316 C 133.890756 46.601476 133.863846 46.380816 133.933812 46.095573 L 143.357597 10.623177 C 143.465235 10.165712 143.745097 9.93967 144.19718 9.93967 L 154.681208 9.93967 C 155.149437 9.93967 155.43468 10.165712 155.536937 10.623177 L 164.906902 46.095573 C 164.944576 46.17092 164.960722 46.262413 164.960722 46.36467 C 164.960722 46.789844 164.713152 46.99974 164.223395 46.99974 Z M 146.748222 34.083073 C 146.748222 34.260677 146.85586 34.346788 147.071138 34.346788 L 151.570444 34.346788 C 151.807249 34.346788 151.914888 34.217621 151.877215 33.970052 L 149.498395 22.953212 C 149.466104 22.818663 149.390756 22.748698 149.277735 22.748698 C 149.175479 22.748698 149.105513 22.818663 149.073222 22.953212 L 146.748222 33.970052 Z M 185.7135 10.725434 C 185.7135 10.483246 185.778083 10.294878 185.918014 10.154948 C 186.063326 10.009635 186.257076 9.93967 186.499264 9.93967 L 194.814368 9.93967 C 195.061937 9.93967 195.255687 10.009635 195.395618 10.154948 C 195.54093 10.294878 195.616278 10.483246 195.616278 10.725434 L 195.616278 46.213976 C 195.616278 46.450781 195.54093 46.644531 195.395618 46.795226 C 195.255687 46.929774 195.061937 46.99974 194.814368 46.99974 L 186.084854 46.99974 C 185.622007 46.99974 185.320618 46.80599 185.180687 46.41849 L 177.823569 29.158594 C 177.791277 29.013281 177.71593 28.943316 177.608291 28.943316 C 177.500652 28.943316 177.452215 29.029427 177.452215 29.212413 L 177.554472 46.213976 C 177.554472 46.450781 177.479125 46.644531 177.333812 46.795226 C 177.199263 46.929774 177.005513 46.99974 176.763326 46.99974 L 168.453604 46.99974 C 168.206034 46.99974 168.006902 46.929774 167.86159 46.795226 C 167.721659 46.644531 167.651694 46.450781 167.651694 46.213976 L 167.651694 10.725434 C 167.651694 10.483246 167.721659 10.294878 167.86159 10.154948 C 168.006902 10.009635 168.206034 9.93967 168.453604 9.93967 L 177.129298 9.93967 C 177.592145 9.93967 177.893534 10.13342 178.033465 10.52092 L 185.390583 27.775434 C 185.422875 27.926128 185.49284 27.990712 185.595097 27.969184 C 185.708118 27.947656 185.761937 27.845399 185.761937 27.673177 Z M 211.595271 47.424913 C 208.985028 47.424913 206.697701 46.967448 204.733291 46.057899 C 202.774264 45.132205 201.256555 43.856684 200.180166 42.215191 C 199.103778 40.568316 198.565583 38.66849 198.565583 36.515712 L 198.565583 35.299392 C 198.565583 35.051823 198.635548 34.858073 198.770097 34.718142 C 198.920791 34.57283 199.119923 34.497483 199.367493 34.497483 L 207.574958 34.497483 C 207.817146 34.497483 208.005514 34.57283 208.145444 34.718142 C 208.290757 34.858073 208.366104 35.051823 208.366104 35.299392 L 208.366104 36.036719 C 208.366104 36.811719 208.694403 37.484462 209.345618 38.054948 C 210.002215 38.61467 210.879472 38.894531 211.972007 38.894531 C 212.849264 38.894531 213.500479 38.673871 213.925653 38.237934 C 214.345444 37.796615 214.55534 37.290712 214.55534 36.720226 C 214.55534 36.058246 214.264715 35.509288 213.678083 35.067969 C 213.102215 34.621267 211.998917 34.023871 210.378951 33.286545 L 209.10343 32.651476 C 207.128257 31.693489 205.416798 30.740885 203.969055 29.793663 C 202.521312 28.835677 201.267319 27.576302 200.207076 26.004774 C 199.146833 24.438628 198.619403 22.56033 198.619403 20.369878 C 198.619403 18.2171 199.157597 16.317274 200.233986 14.681163 C 201.310375 13.034288 202.79041 11.764149 204.679472 10.870746 C 206.573916 9.961198 208.737458 9.509114 211.170097 9.509114 C 213.678083 9.509114 215.916972 9.988107 217.892146 10.946093 C 219.872701 11.893316 221.422701 13.23342 222.531382 14.966406 C 223.645444 16.699392 224.199785 18.674566 224.199785 20.897309 L 224.199785 21.742274 C 224.199785 21.989844 224.129819 22.188975 223.979125 22.334288 C 223.844576 22.474219 223.650826 22.544184 223.397875 22.544184 L 215.19041 22.544184 C 214.948222 22.544184 214.754472 22.474219 214.60916 22.334288 C 214.469229 22.188975 214.399264 21.989844 214.399264 21.742274 L 214.399264 21.004948 C 214.399264 20.229948 214.092493 19.535677 213.468187 18.932899 C 212.860028 18.330121 212.041972 18.028732 211.014021 18.028732 C 210.239021 18.028732 209.609333 18.238628 209.124958 18.653038 C 208.651347 19.056684 208.414542 19.611024 208.414542 20.316059 C 208.414542 21.096441 208.812805 21.790712 209.603951 22.415017 C 210.400479 23.023177 211.961243 23.878906 214.297007 24.971441 C 214.652215 25.186719 215.179646 25.471962 215.890062 25.82717 C 217.757597 26.844357 219.25916 27.753906 220.389368 28.550434 C 221.514194 29.346962 222.466799 30.391059 223.241799 31.682726 C 224.022181 32.963628 224.409681 34.540538 224.409681 36.413455 C 224.409681 39.798698 223.231035 42.484288 220.879125 44.464844 C 218.532597 46.440017 215.437979 47.424913 211.595271 47.424913 Z M 228.058639 46.99974 C 227.811069 46.99974 227.611938 46.929774 227.466625 46.795226 C 227.326694 46.644531 227.262111 46.450781 227.262111 46.213976 L 227.262111 10.725434 C 227.262111 10.483246 227.326694 10.294878 227.466625 10.154948 C 227.611938 10.009635 227.811069 9.93967 228.058639 9.93967 L 236.427563 9.93967 C 236.664368 9.93967 236.858118 10.009635 236.992667 10.154948 C 237.137979 10.294878 237.213326 10.483246 237.213326 10.725434 L 237.213326 46.213976 C 237.213326 46.450781 237.137979 46.644531 236.992667 46.795226 C 236.858118 46.929774 236.664368 46.99974 236.427563 46.99974 Z M 228.058639 46.99974 " stroke="#545454" stroke-width="1.257601" stroke-opacity="1" stroke-miterlimit="4"/></g></svg>