<svg xmlns="http://www.w3.org/2000/svg" xmlns:xlink="http://www.w3.org/1999/xlink" width="159" zoomAndPan="magnify" viewBox="0 0 119.25 30.000001" height="40" preserveAspectRatio="xMidYMid meet" version="1.0"><defs><clipPath id="f856057c85"><path d="M 1.558594 0 L 116.964844 0 L 116.964844 29.03125 L 1.558594 29.03125 Z M 1.558594 0 " clip-rule="nonzero"/></clipPath></defs><g clip-path="url(#f856057c85)"><path fill="#ffffff" d="M 1.558594 0 L 116.964844 0 L 116.964844 29.03125 L 1.558594 29.03125 Z M 1.558594 0 " fill-opacity="1" fill-rule="nonzero"/><path fill="#ffffff" d="M 1.558594 0 L 116.964844 0 L 116.964844 29.03125 L 1.558594 29.03125 Z M 1.558594 0 " fill-opacity="1" fill-rule="nonzero"/></g><path stroke-linecap="butt" transform="matrix(0.725806, 0, 0, 0.725806, -2.556578, 5.806454)" fill="none" stroke-linejoin="miter" d="M 20.104167 4.443053 C 20.184896 4.281595 20.330209 4.200865 20.534722 4.200865 L 24.280556 4.200865 C 24.393577 4.200865 24.479688 4.233157 24.544271 4.303122 C 24.608854 4.362324 24.641146 4.448435 24.641146 4.556074 L 24.641146 20.642706 C 24.641146 20.750345 24.608854 20.841838 24.544271 20.906421 C 24.479688 20.971005 24.393577 20.997914 24.280556 20.997914 L 20.486285 20.997914 C 20.373264 20.997914 20.287153 20.971005 20.22257 20.906421 C 20.163368 20.841838 20.131077 20.750345 20.131077 20.642706 L 20.131077 11.423435 C 20.131077 11.358852 20.109549 11.315796 20.066493 11.305032 C 20.02882 11.288886 19.991146 11.310414 19.958854 11.380379 L 18.425 13.920657 C 18.328125 14.082116 18.182813 14.162845 17.994445 14.162845 L 17.364757 14.162845 C 17.176389 14.162845 17.031077 14.082116 16.939584 13.920657 L 15.400347 11.348088 C 15.368056 11.288886 15.330382 11.261977 15.292709 11.278122 C 15.249653 11.294268 15.233507 11.337324 15.233507 11.401907 L 15.233507 20.642706 C 15.233507 20.750345 15.201215 20.841838 15.13125 20.906421 C 15.072049 20.971005 14.980556 20.997914 14.867535 20.997914 L 11.078646 20.997914 C 10.971007 20.997914 10.879514 20.971005 10.814931 20.906421 C 10.750347 20.841838 10.718056 20.750345 10.718056 20.642706 L 10.718056 4.556074 C 10.718056 4.448435 10.750347 4.362324 10.814931 4.303122 C 10.879514 4.233157 10.971007 4.200865 11.078646 4.200865 L 14.824479 4.200865 C 15.012847 4.200865 15.15816 4.281595 15.255035 4.443053 L 17.606945 8.425692 C 17.639236 8.474129 17.67691 8.495657 17.714584 8.495657 C 17.757639 8.495657 17.784549 8.474129 17.800695 8.425692 Z M 35.561111 20.997914 C 35.33507 20.997914 35.200521 20.895657 35.152084 20.691143 L 34.748438 18.839755 C 34.710764 18.759025 34.662327 18.721352 34.597743 18.721352 L 31.002604 18.721352 C 30.938021 18.721352 30.889584 18.759025 30.857292 18.839755 L 30.469792 20.691143 C 30.421354 20.895657 30.286806 20.997914 30.066146 20.997914 L 26.126563 20.997914 C 25.997396 20.997914 25.905903 20.965623 25.852084 20.895657 C 25.798264 20.82031 25.7875 20.718053 25.81441 20.588886 L 30.087674 4.513018 C 30.136111 4.303122 30.259896 4.200865 30.469792 4.200865 L 35.222049 4.200865 C 35.431945 4.200865 35.561111 4.303122 35.609549 4.513018 L 39.855903 20.588886 C 39.872049 20.62656 39.877431 20.664234 39.877431 20.712671 C 39.877431 20.906421 39.769792 20.997914 39.54375 20.997914 Z M 31.621528 15.147741 C 31.621528 15.223088 31.669966 15.266143 31.772223 15.266143 L 33.806598 15.266143 C 33.919618 15.266143 33.968056 15.206942 33.95191 15.093921 L 32.870139 10.099477 C 32.853993 10.040275 32.821702 10.007984 32.773264 10.007984 C 32.724827 10.007984 32.692535 10.040275 32.676389 10.099477 L 31.621528 15.093921 Z M 49.290452 4.556074 C 49.290452 4.448435 49.317362 4.362324 49.381945 4.303122 C 49.446528 4.233157 49.538021 4.200865 49.64566 4.200865 L 53.413021 4.200865 C 53.526042 4.200865 53.612153 4.233157 53.676737 4.303122 C 53.74132 4.362324 53.778994 4.448435 53.778994 4.556074 L 53.778994 20.642706 C 53.778994 20.750345 53.74132 20.841838 53.676737 20.906421 C 53.612153 20.971005 53.526042 20.997914 53.413021 20.997914 L 49.457292 20.997914 C 49.247396 20.997914 49.112848 20.911803 49.048264 20.734199 L 45.716841 12.914234 C 45.700695 12.84965 45.663021 12.811977 45.614584 12.811977 C 45.566146 12.811977 45.544619 12.855032 45.544619 12.935761 L 45.593056 20.642706 C 45.593056 20.750345 45.555382 20.841838 45.490799 20.906421 C 45.431598 20.971005 45.345487 20.997914 45.232466 20.997914 L 41.465105 20.997914 C 41.352084 20.997914 41.260591 20.971005 41.196007 20.906421 C 41.136806 20.841838 41.104514 20.750345 41.104514 20.642706 L 41.104514 4.556074 C 41.104514 4.448435 41.136806 4.362324 41.196007 4.303122 C 41.260591 4.233157 41.352084 4.200865 41.465105 4.200865 L 45.399306 4.200865 C 45.609202 4.200865 45.74375 4.286977 45.808334 4.464581 L 49.139757 12.284546 C 49.155903 12.354511 49.188195 12.381421 49.236632 12.376039 C 49.28507 12.365275 49.31198 12.316838 49.31198 12.241491 Z M 61.023091 21.191664 C 59.839063 21.191664 58.80573 20.98715 57.912327 20.572741 C 57.024306 20.152949 56.340799 19.571699 55.851042 18.834373 C 55.361285 18.086282 55.119098 17.225171 55.119098 16.245657 L 55.119098 15.696699 C 55.119098 15.583678 55.151389 15.497567 55.210591 15.432984 C 55.280556 15.3684 55.366667 15.336109 55.479688 15.336109 L 59.203994 15.336109 C 59.311633 15.336109 59.397744 15.3684 59.462327 15.432984 C 59.52691 15.497567 59.559202 15.583678 59.559202 15.696699 L 59.559202 16.030379 C 59.559202 16.380206 59.709896 16.686977 60.005903 16.94531 C 60.30191 17.198261 60.700174 17.327428 61.195313 17.327428 C 61.593577 17.327428 61.889584 17.225171 62.077952 17.026039 C 62.271702 16.826907 62.368577 16.600866 62.368577 16.342532 C 62.368577 16.041143 62.234028 15.793574 61.970313 15.594442 C 61.706598 15.389928 61.206077 15.120831 60.474133 14.781768 L 59.892883 14.496525 C 58.99948 14.060588 58.22448 13.630032 57.567882 13.199477 C 56.911285 12.768921 56.340799 12.193053 55.861806 11.482636 C 55.382813 10.77222 55.140626 9.921872 55.140626 8.931595 C 55.140626 7.952081 55.388195 7.096352 55.87257 6.353643 C 56.362327 5.605553 57.03507 5.029685 57.890799 4.620657 C 58.746528 4.211629 59.731424 4.007115 60.829341 4.007115 C 61.970313 4.007115 62.982119 4.222393 63.875521 4.658331 C 64.774306 5.088886 65.479341 5.697046 65.979862 6.48281 C 66.485765 7.263192 66.738716 8.161977 66.738716 9.1684 L 66.738716 9.550518 C 66.738716 9.663539 66.706424 9.755032 66.636459 9.819616 C 66.577258 9.884199 66.485765 9.916491 66.372744 9.916491 L 62.65382 9.916491 C 62.546181 9.916491 62.454688 9.884199 62.390105 9.819616 C 62.325521 9.755032 62.29323 9.663539 62.29323 9.550518 L 62.29323 9.216838 C 62.29323 8.867011 62.153299 8.554859 61.873438 8.280379 C 61.598959 8.0059 61.227605 7.871352 60.759376 7.871352 C 60.409549 7.871352 60.124306 7.962845 59.903646 8.151213 C 59.688369 8.334199 59.58073 8.58715 59.58073 8.904685 C 59.58073 9.259893 59.763716 9.572046 60.124306 9.857289 C 60.479514 10.131768 61.189931 10.519268 62.250174 11.014407 C 62.411633 11.111282 62.648438 11.240449 62.971355 11.401907 C 63.81632 11.864754 64.494445 12.273782 65.011112 12.639754 C 65.522396 13.000345 65.952952 13.468574 66.302778 14.055206 C 66.652605 14.636456 66.830209 15.352254 66.830209 16.202602 C 66.830209 17.736456 66.297396 18.952775 65.231771 19.85156 C 64.171528 20.744963 62.766841 21.191664 61.023091 21.191664 Z M 68.487848 20.997914 C 68.374827 20.997914 68.288716 20.971005 68.218751 20.906421 C 68.159549 20.841838 68.127258 20.750345 68.127258 20.642706 L 68.127258 4.556074 C 68.127258 4.448435 68.159549 4.362324 68.218751 4.303122 C 68.288716 4.233157 68.374827 4.200865 68.487848 4.200865 L 72.282119 4.200865 C 72.389758 4.200865 72.475869 4.233157 72.540452 4.303122 C 72.605035 4.362324 72.637327 4.448435 72.637327 4.556074 L 72.637327 20.642706 C 72.637327 20.750345 72.605035 20.841838 72.540452 20.906421 C 72.475869 20.971005 72.389758 20.997914 72.282119 20.997914 Z M 90.543056 4.200865 C 90.656077 4.200865 90.742188 4.233157 90.806772 4.303122 C 90.871355 4.362324 90.903647 4.448435 90.903647 4.556074 L 90.903647 7.704511 C 90.903647 7.81215 90.871355 7.903643 90.806772 7.968227 C 90.742188 8.03281 90.656077 8.065102 90.543056 8.065102 L 87.136286 8.065102 C 87.039411 8.065102 86.990973 8.113539 86.990973 8.210414 L 86.990973 20.642706 C 86.990973 20.750345 86.958681 20.841838 86.888716 20.906421 C 86.829515 20.971005 86.743404 20.997914 86.635765 20.997914 L 82.841494 20.997914 C 82.728473 20.997914 82.63698 20.971005 82.572397 20.906421 C 82.513195 20.841838 82.480904 20.750345 82.480904 20.642706 L 82.480904 8.210414 C 82.480904 8.113539 82.432466 8.065102 82.340973 8.065102 L 78.998785 8.065102 C 78.885765 8.065102 78.799654 8.03281 78.73507 7.968227 C 78.670487 7.903643 78.643577 7.81215 78.643577 7.704511 L 78.643577 4.556074 C 78.643577 4.448435 78.670487 4.362324 78.73507 4.303122 C 78.799654 4.233157 78.885765 4.200865 78.998785 4.200865 Z M 101.538369 20.997914 C 101.312327 20.997914 101.172397 20.895657 101.129341 20.691143 L 100.720313 18.839755 C 100.688022 18.759025 100.639584 18.721352 100.575001 18.721352 L 96.979862 18.721352 C 96.909897 18.721352 96.861459 18.759025 96.829168 18.839755 L 96.447049 20.691143 C 96.398612 20.895657 96.264063 20.997914 96.043404 20.997914 L 92.10382 20.997914 C 91.974654 20.997914 91.883161 20.965623 91.829341 20.895657 C 91.775522 20.82031 91.759376 20.718053 91.791667 20.588886 L 96.064931 4.513018 C 96.113369 4.303122 96.237154 4.200865 96.447049 4.200865 L 101.199306 4.200865 C 101.409202 4.200865 101.538369 4.303122 101.581425 4.513018 L 105.833161 20.588886 C 105.849307 20.62656 105.854688 20.664234 105.854688 20.712671 C 105.854688 20.906421 105.741668 20.997914 105.521008 20.997914 Z M 97.598786 15.147741 C 97.598786 15.223088 97.647223 15.266143 97.744098 15.266143 L 99.783855 15.266143 C 99.896876 15.266143 99.939931 15.206942 99.923786 15.093921 L 98.847397 10.099477 C 98.831251 10.040275 98.798959 10.007984 98.750522 10.007984 C 98.702084 10.007984 98.669793 10.040275 98.653647 10.099477 L 97.598786 15.093921 Z M 115.262327 4.556074 C 115.262327 4.448435 115.294619 4.362324 115.359202 4.303122 C 115.423786 4.233157 115.509897 4.200865 115.622918 4.200865 L 119.390279 4.200865 C 119.5033 4.200865 119.589411 4.233157 119.653994 4.303122 C 119.718577 4.362324 119.750869 4.448435 119.750869 4.556074 L 119.750869 20.642706 C 119.750869 20.750345 119.718577 20.841838 119.653994 20.906421 C 119.589411 20.971005 119.5033 20.997914 119.390279 20.997914 L 115.43455 20.997914 C 115.224654 20.997914 115.084723 20.911803 115.025522 20.734199 L 111.688716 12.914234 C 111.67257 12.84965 111.640279 12.811977 111.591841 12.811977 C 111.543404 12.811977 111.521876 12.855032 111.521876 12.935761 L 111.564932 20.642706 C 111.564932 20.750345 111.53264 20.841838 111.468057 20.906421 C 111.403473 20.971005 111.317362 20.997914 111.209723 20.997914 L 107.442362 20.997914 C 107.329341 20.997914 107.237848 20.971005 107.173265 20.906421 C 107.108682 20.841838 107.07639 20.750345 107.07639 20.642706 L 107.07639 4.556074 C 107.07639 4.448435 107.108682 4.362324 107.173265 4.303122 C 107.237848 4.233157 107.329341 4.200865 107.442362 4.200865 L 111.371182 4.200865 C 111.586459 4.200865 111.721008 4.286977 111.785591 4.464581 L 115.117015 12.284546 C 115.133161 12.354511 115.165452 12.381421 115.21389 12.376039 C 115.262327 12.365275 115.289237 12.316838 115.289237 12.241491 Z M 132.183161 7.704511 C 132.183161 7.81215 132.150869 7.903643 132.086286 7.968227 C 132.021703 8.03281 131.935591 8.065102 131.822571 8.065102 L 125.967015 8.065102 C 125.87014 8.065102 125.821703 8.113539 125.821703 8.210414 L 125.821703 10.465449 C 125.821703 10.556942 125.87014 10.605379 125.967015 10.605379 L 129.352258 10.605379 C 129.465279 10.605379 129.55139 10.637671 129.615973 10.707636 C 129.680557 10.766838 129.712848 10.852949 129.712848 10.971352 L 129.712848 14.087498 C 129.712848 14.200518 129.680557 14.286629 129.615973 14.356595 C 129.55139 14.415796 129.465279 14.448088 129.352258 14.448088 L 125.967015 14.448088 C 125.87014 14.448088 125.821703 14.496525 125.821703 14.588018 L 125.821703 16.993748 C 125.821703 17.090623 125.87014 17.13906 125.967015 17.13906 L 131.822571 17.13906 C 131.935591 17.13906 132.021703 17.171352 132.086286 17.230553 C 132.150869 17.295136 132.183161 17.381248 132.183161 17.494268 L 132.183161 20.642706 C 132.183161 20.750345 132.150869 20.841838 132.086286 20.906421 C 132.021703 20.971005 131.935591 20.997914 131.822571 20.997914 L 121.672223 20.997914 C 121.559202 20.997914 121.473091 20.971005 121.403126 20.906421 C 121.343925 20.841838 121.311633 20.750345 121.311633 20.642706 L 121.311633 4.556074 C 121.311633 4.448435 121.343925 4.362324 121.403126 4.303122 C 121.473091 4.233157 121.559202 4.200865 121.672223 4.200865 L 131.822571 4.200865 C 131.935591 4.200865 132.021703 4.233157 132.086286 4.303122 C 132.150869 4.362324 132.183161 4.448435 132.183161 4.556074 Z M 138.732987 21.191664 C 137.581251 21.191664 136.564064 20.971005 135.686807 20.529685 C 134.80955 20.088366 134.131425 19.469442 133.64705 18.672914 C 133.168057 17.871004 132.925869 16.950692 132.925869 15.911977 L 132.925869 14.566491 C 132.925869 14.458852 132.958161 14.372741 133.022744 14.308157 C 133.087328 14.243574 133.173439 14.211282 133.28646 14.211282 L 137.08073 14.211282 C 137.193751 14.211282 137.279862 14.243574 137.339064 14.308157 C 137.409029 14.372741 137.441321 14.458852 137.441321 14.566491 L 137.441321 15.911977 C 137.441321 16.326386 137.554341 16.665449 137.785765 16.934546 C 138.017189 17.192879 138.334723 17.327428 138.732987 17.327428 C 139.136633 17.327428 139.464932 17.192879 139.717883 16.934546 C 139.976217 16.665449 140.105383 16.326386 140.105383 15.911977 L 140.105383 4.556074 C 140.105383 4.448435 140.137675 4.362324 140.196876 4.303122 C 140.26146 4.233157 140.347571 4.200865 140.460592 4.200865 L 144.227953 4.200865 C 144.346355 4.200865 144.432467 4.233157 144.491668 4.303122 C 144.561633 4.362324 144.593925 4.448435 144.593925 4.556074 L 144.593925 15.911977 C 144.593925 16.950692 144.351737 17.871004 143.86198 18.672914 C 143.372223 19.469442 142.683335 20.088366 141.795314 20.529685 C 140.907293 20.971005 139.884723 21.191664 138.732987 21.191664 Z M 155.583856 20.997914 C 155.357814 20.997914 155.223265 20.895657 155.174828 20.691143 L 154.771182 18.839755 C 154.733508 18.759025 154.685071 18.721352 154.625869 18.721352 L 151.025349 18.721352 C 150.960765 18.721352 150.912328 18.759025 150.880036 18.839755 L 150.492536 20.691143 C 150.444099 20.895657 150.30955 20.997914 150.08889 20.997914 L 146.149307 20.997914 C 146.02014 20.997914 145.928647 20.965623 145.874828 20.895657 C 145.821008 20.82031 145.810244 20.718053 145.842536 20.588886 L 150.110418 4.513018 C 150.158855 4.303122 150.288022 4.200865 150.492536 4.200865 L 155.244793 4.200865 C 155.454689 4.200865 155.583856 4.303122 155.632293 4.513018 L 159.878647 20.588886 C 159.894793 20.62656 159.905557 20.664234 159.905557 20.712671 C 159.905557 20.906421 159.792536 20.997914 159.566494 20.997914 Z M 151.649654 15.147741 C 151.649654 15.223088 151.698092 15.266143 151.794967 15.266143 L 153.834724 15.266143 C 153.942362 15.266143 153.9908 15.206942 153.974654 15.093921 L 152.892883 10.099477 C 152.882119 10.040275 152.844446 10.007984 152.796008 10.007984 C 152.747571 10.007984 152.715279 10.040275 152.704515 10.099477 L 151.649654 15.093921 Z M 151.649654 15.147741 " stroke="#545454" stroke-width="0.57" stroke-opacity="1" stroke-miterlimit="4"/></svg>